<mxfile host="app.diagrams.net" modified="2024-03-04T06:59:22.532Z" agent="Mozilla/5.0 (Macintosh; Intel Mac OS X 10_15_7) AppleWebKit/537.36 (KHTML, like Gecko) Chrome/122.0.0.0 Safari/537.36" etag="GHFtMRKqk9H-DGibFdBX" version="24.0.1" type="github">
  <diagram name="Page-1" id="64c3da0e-402f-94eb-ee01-a36477274f13">
    <mxGraphModel dx="1990" dy="1843" grid="1" gridSize="10" guides="1" tooltips="1" connect="1" arrows="1" fold="1" page="1" pageScale="1" pageWidth="1169" pageHeight="826" background="none" math="0" shadow="0">
      <root>
        <mxCell id="0" />
        <mxCell id="1" parent="0" />
        <mxCell id="3" value="病理学检测" style="whiteSpace=wrap;rounded=1;fillColor=#F2931E;strokeColor=none;shadow=1;fontColor=#FFFFFF;fontStyle=1;fontSize=14" parent="1" vertex="1">
          <mxGeometry x="170" y="-480.0000000000002" width="140" height="60" as="geometry" />
        </mxCell>
        <mxCell id="4" value="肠纤维化标志检测" style="whiteSpace=wrap;rounded=1;fillColor=#F2931E;strokeColor=none;shadow=1;fontColor=#FFFFFF;fontStyle=1;fontSize=14" parent="1" vertex="1">
          <mxGeometry x="540" y="-480.0000000000002" width="140" height="60" as="geometry" />
        </mxCell>
        <mxCell id="5" value="关联分析" style="whiteSpace=wrap;rounded=1;fillColor=#F2931E;strokeColor=none;shadow=1;fontColor=#FFFFFF;fontStyle=1;fontSize=14" parent="1" vertex="1">
          <mxGeometry x="2020" y="-480.0000000000002" width="140" height="60" as="geometry" />
        </mxCell>
        <mxCell id="6" value="炎症因子检测" style="whiteSpace=wrap;rounded=1;fillColor=#F2931E;strokeColor=none;shadow=1;fontColor=#FFFFFF;fontStyle=1;fontSize=14" parent="1" vertex="1">
          <mxGeometry x="910" y="-480.0000000000002" width="140" height="60" as="geometry" />
        </mxCell>
        <mxCell id="7" value="巨噬细胞极化检测" style="whiteSpace=wrap;rounded=1;fillColor=#F2931E;strokeColor=none;shadow=1;fontColor=#FFFFFF;fontStyle=1;fontSize=14" parent="1" vertex="1">
          <mxGeometry x="1280" y="-480.0000000000002" width="140" height="60" as="geometry" />
        </mxCell>
        <mxCell id="8" value="信号通路检测" style="whiteSpace=wrap;rounded=1;fillColor=#F2931E;strokeColor=none;shadow=1;fontColor=#FFFFFF;fontStyle=1;fontSize=14" parent="1" vertex="1">
          <mxGeometry x="1650" y="-480.0000000000002" width="140" height="60" as="geometry" />
        </mxCell>
        <mxCell id="10" value="HE/Messon" style="whiteSpace=wrap;rounded=1;fillColor=#12AAB5;strokeColor=none;shadow=1;fontColor=#FFFFFF;" parent="1" vertex="1">
          <mxGeometry x="80" y="-349.9999999999999" width="120" height="60" as="geometry" />
        </mxCell>
        <mxCell id="12" value="PAS检测" style="whiteSpace=wrap;rounded=1;fillColor=#12AAB5;strokeColor=none;shadow=1;fontColor=#FFFFFF;" parent="1" vertex="1">
          <mxGeometry x="280" y="-349.9999999999999" width="120" height="60" as="geometry" />
        </mxCell>
        <mxCell id="43" value="Western Blot" style="whiteSpace=wrap;rounded=1;fillColor=#12AAB5;strokeColor=none;shadow=1;fontColor=#FFFFFF;" parent="1" vertex="1">
          <mxGeometry x="449.9999999999998" y="-349.9999999999999" width="120" height="60" as="geometry" />
        </mxCell>
        <mxCell id="44" value="RT-qPCR" style="whiteSpace=wrap;rounded=1;fillColor=#12AAB5;strokeColor=none;shadow=1;fontColor=#FFFFFF;" parent="1" vertex="1">
          <mxGeometry x="649.9999999999998" y="-349.9999999999999" width="120" height="60" as="geometry" />
        </mxCell>
        <mxCell id="103" value="" style="edgeStyle=elbowEdgeStyle;elbow=vertical;rounded=0;fontColor=#000000;endArrow=none;endFill=0;strokeWidth=8;strokeColor=#23445D;" parent="1" source="3" target="10" edge="1">
          <mxGeometry width="100" height="100" relative="1" as="geometry">
            <mxPoint x="30" y="-360" as="sourcePoint" />
            <mxPoint x="130" y="-460" as="targetPoint" />
          </mxGeometry>
        </mxCell>
        <mxCell id="104" value="" style="edgeStyle=elbowEdgeStyle;elbow=vertical;rounded=0;fontColor=#000000;endArrow=none;endFill=0;strokeWidth=8;strokeColor=#23445D;" parent="1" source="3" target="12" edge="1">
          <mxGeometry width="100" height="100" relative="1" as="geometry">
            <mxPoint x="370" y="-360" as="sourcePoint" />
            <mxPoint x="470" y="-460" as="targetPoint" />
          </mxGeometry>
        </mxCell>
        <mxCell id="116" value="" style="edgeStyle=elbowEdgeStyle;elbow=vertical;rounded=0;fontColor=#000000;endArrow=none;endFill=0;strokeWidth=8;strokeColor=#23445D;" parent="1" source="4" target="43" edge="1">
          <mxGeometry width="100" height="100" relative="1" as="geometry">
            <mxPoint x="250" y="-410.0000000000002" as="sourcePoint" />
            <mxPoint x="150" y="-340" as="targetPoint" />
          </mxGeometry>
        </mxCell>
        <mxCell id="117" value="" style="edgeStyle=elbowEdgeStyle;elbow=vertical;rounded=0;fontColor=#000000;endArrow=none;endFill=0;strokeWidth=8;strokeColor=#23445D;" parent="1" source="4" target="44" edge="1">
          <mxGeometry width="100" height="100" relative="1" as="geometry">
            <mxPoint x="250" y="-410.0000000000002" as="sourcePoint" />
            <mxPoint x="350" y="-340" as="targetPoint" />
          </mxGeometry>
        </mxCell>
        <mxCell id="133" value="ELISA" style="whiteSpace=wrap;rounded=1;fillColor=#12AAB5;strokeColor=none;shadow=1;fontColor=#FFFFFF;" parent="1" vertex="1">
          <mxGeometry x="819.9999999999998" y="-349.9999999999999" width="120" height="60" as="geometry" />
        </mxCell>
        <mxCell id="134" value="流式细胞术" style="whiteSpace=wrap;rounded=1;fillColor=#12AAB5;strokeColor=none;shadow=1;fontColor=#FFFFFF;" parent="1" vertex="1">
          <mxGeometry x="1019.9999999999998" y="-349.9999999999999" width="120" height="60" as="geometry" />
        </mxCell>
        <mxCell id="155" value="透射电镜" style="whiteSpace=wrap;rounded=1;fillColor=#12AAB5;strokeColor=none;shadow=1;fontColor=#FFFFFF;" parent="1" vertex="1">
          <mxGeometry x="1189.9999999999998" y="-349.9999999999998" width="120" height="60" as="geometry" />
        </mxCell>
        <mxCell id="156" value="多重免疫荧光" style="whiteSpace=wrap;rounded=1;fillColor=#12AAB5;strokeColor=none;shadow=1;fontColor=#FFFFFF;" parent="1" vertex="1">
          <mxGeometry x="1389.9999999999998" y="-349.9999999999998" width="120" height="60" as="geometry" />
        </mxCell>
        <mxCell id="177" value="WB/RT-qPCR" style="whiteSpace=wrap;rounded=1;fillColor=#12AAB5;strokeColor=none;shadow=1;fontColor=#FFFFFF;" parent="1" vertex="1">
          <mxGeometry x="1559.9999999999998" y="-350.0000000000001" width="120" height="60" as="geometry" />
        </mxCell>
        <mxCell id="178" value="IHC/IF" style="whiteSpace=wrap;rounded=1;fillColor=#12AAB5;strokeColor=none;shadow=1;fontColor=#FFFFFF;" parent="1" vertex="1">
          <mxGeometry x="1759.9999999999998" y="-350.0000000000001" width="120" height="60" as="geometry" />
        </mxCell>
        <mxCell id="199" value="回归分析" style="whiteSpace=wrap;rounded=1;fillColor=#12AAB5;strokeColor=none;shadow=1;fontColor=#FFFFFF;" parent="1" vertex="1">
          <mxGeometry x="1929.9999999999998" y="-350.0000000000003" width="120" height="60" as="geometry" />
        </mxCell>
        <mxCell id="200" value="关联分析" style="whiteSpace=wrap;rounded=1;fillColor=#12AAB5;strokeColor=none;shadow=1;fontColor=#FFFFFF;" parent="1" vertex="1">
          <mxGeometry x="2130" y="-350.0000000000003" width="120" height="60" as="geometry" />
        </mxCell>
        <mxCell id="221" value="" style="edgeStyle=elbowEdgeStyle;elbow=vertical;rounded=0;fontColor=#000000;endArrow=none;endFill=0;strokeWidth=8;strokeColor=#23445D;" parent="1" source="6" target="133" edge="1">
          <mxGeometry width="100" height="100" relative="1" as="geometry">
            <mxPoint x="790" y="-380" as="sourcePoint" />
            <mxPoint x="890" y="-480" as="targetPoint" />
          </mxGeometry>
        </mxCell>
        <mxCell id="222" value="" style="edgeStyle=elbowEdgeStyle;elbow=vertical;rounded=0;fontColor=#000000;endArrow=none;endFill=0;strokeWidth=8;strokeColor=#23445D;" parent="1" source="6" target="134" edge="1">
          <mxGeometry width="100" height="100" relative="1" as="geometry">
            <mxPoint x="1040" y="-370" as="sourcePoint" />
            <mxPoint x="1140" y="-470" as="targetPoint" />
          </mxGeometry>
        </mxCell>
        <mxCell id="223" value="" style="edgeStyle=elbowEdgeStyle;elbow=vertical;rounded=0;fontColor=#000000;endArrow=none;endFill=0;strokeWidth=8;strokeColor=#23445D;" parent="1" source="7" target="155" edge="1">
          <mxGeometry width="100" height="100" relative="1" as="geometry">
            <mxPoint x="1350" y="-350" as="sourcePoint" />
            <mxPoint x="1250" y="-460" as="targetPoint" />
          </mxGeometry>
        </mxCell>
        <mxCell id="224" value="" style="edgeStyle=elbowEdgeStyle;elbow=vertical;rounded=0;fontColor=#000000;endArrow=none;endFill=0;strokeWidth=8;strokeColor=#23445D;" parent="1" source="7" target="156" edge="1">
          <mxGeometry width="100" height="100" relative="1" as="geometry">
            <mxPoint x="1440" y="-360" as="sourcePoint" />
            <mxPoint x="1540" y="-460" as="targetPoint" />
          </mxGeometry>
        </mxCell>
        <mxCell id="225" value="" style="edgeStyle=elbowEdgeStyle;elbow=vertical;rounded=0;fontColor=#000000;endArrow=none;endFill=0;strokeWidth=8;strokeColor=#23445D;" parent="1" source="8" target="177" edge="1">
          <mxGeometry width="100" height="100" relative="1" as="geometry">
            <mxPoint x="1560" y="-360" as="sourcePoint" />
            <mxPoint x="1660" y="-460" as="targetPoint" />
          </mxGeometry>
        </mxCell>
        <mxCell id="226" value="" style="edgeStyle=elbowEdgeStyle;elbow=vertical;rounded=0;fontColor=#000000;endArrow=none;endFill=0;strokeWidth=8;strokeColor=#23445D;" parent="1" source="8" target="178" edge="1">
          <mxGeometry width="100" height="100" relative="1" as="geometry">
            <mxPoint x="1790" y="-360" as="sourcePoint" />
            <mxPoint x="1890" y="-460" as="targetPoint" />
          </mxGeometry>
        </mxCell>
        <mxCell id="227" value="" style="edgeStyle=elbowEdgeStyle;elbow=vertical;rounded=0;fontColor=#000000;endArrow=none;endFill=0;strokeWidth=8;strokeColor=#23445D;" parent="1" source="5" target="199" edge="1">
          <mxGeometry width="100" height="100" relative="1" as="geometry">
            <mxPoint x="1910" y="-360" as="sourcePoint" />
            <mxPoint x="2010" y="-460" as="targetPoint" />
          </mxGeometry>
        </mxCell>
        <mxCell id="228" value="" style="edgeStyle=elbowEdgeStyle;elbow=vertical;rounded=0;fontColor=#000000;endArrow=none;endFill=0;strokeWidth=8;strokeColor=#23445D;" parent="1" source="5" target="200" edge="1">
          <mxGeometry width="100" height="100" relative="1" as="geometry">
            <mxPoint x="2170" y="-360" as="sourcePoint" />
            <mxPoint x="2270" y="-460" as="targetPoint" />
          </mxGeometry>
        </mxCell>
        <mxCell id="229" value="" style="edgeStyle=elbowEdgeStyle;elbow=vertical;rounded=0;fontColor=#000000;endArrow=none;endFill=0;strokeWidth=8;strokeColor=#23445D;exitX=0.5;exitY=1;exitDx=0;exitDy=0;" parent="1" source="2" target="3" edge="1">
          <mxGeometry width="100" height="100" relative="1" as="geometry">
            <mxPoint x="550" y="-510" as="sourcePoint" />
            <mxPoint x="650" y="-610" as="targetPoint" />
            <Array as="points">
              <mxPoint x="1050" y="-510" />
            </Array>
          </mxGeometry>
        </mxCell>
        <mxCell id="230" value="" style="edgeStyle=elbowEdgeStyle;elbow=vertical;rounded=0;fontColor=#000000;endArrow=none;endFill=0;strokeWidth=8;strokeColor=#23445D;exitX=0.5;exitY=1;exitDx=0;exitDy=0;" parent="1" source="2" target="4" edge="1">
          <mxGeometry width="100" height="100" relative="1" as="geometry">
            <mxPoint x="560" y="-500" as="sourcePoint" />
            <mxPoint x="660" y="-600" as="targetPoint" />
            <Array as="points">
              <mxPoint x="1130" y="-510" />
            </Array>
          </mxGeometry>
        </mxCell>
        <mxCell id="231" value="" style="edgeStyle=elbowEdgeStyle;elbow=vertical;rounded=0;fontColor=#000000;endArrow=none;endFill=0;strokeWidth=8;strokeColor=#23445D;exitX=0.5;exitY=1;exitDx=0;exitDy=0;" parent="1" source="2" target="6" edge="1">
          <mxGeometry width="100" height="100" relative="1" as="geometry">
            <mxPoint x="570" y="-490" as="sourcePoint" />
            <mxPoint x="670" y="-590" as="targetPoint" />
            <Array as="points">
              <mxPoint x="1160" y="-510" />
            </Array>
          </mxGeometry>
        </mxCell>
        <mxCell id="232" value="" style="edgeStyle=elbowEdgeStyle;elbow=vertical;rounded=0;fontColor=#000000;endArrow=none;endFill=0;strokeWidth=8;strokeColor=#23445D;exitX=0.5;exitY=1;exitDx=0;exitDy=0;" parent="1" source="2" target="7" edge="1">
          <mxGeometry width="100" height="100" relative="1" as="geometry">
            <mxPoint x="580" y="-480" as="sourcePoint" />
            <mxPoint x="680" y="-580" as="targetPoint" />
            <Array as="points">
              <mxPoint x="1270" y="-510" />
            </Array>
          </mxGeometry>
        </mxCell>
        <mxCell id="233" value="" style="edgeStyle=elbowEdgeStyle;elbow=vertical;rounded=0;fontColor=#000000;endArrow=none;endFill=0;strokeWidth=8;strokeColor=#23445D;" parent="1" target="8" edge="1">
          <mxGeometry width="100" height="100" relative="1" as="geometry">
            <mxPoint x="1180" y="-580" as="sourcePoint" />
            <mxPoint x="690" y="-570" as="targetPoint" />
            <Array as="points">
              <mxPoint x="1190" y="-510" />
            </Array>
          </mxGeometry>
        </mxCell>
        <mxCell id="234" value="" style="edgeStyle=elbowEdgeStyle;elbow=vertical;rounded=0;fontColor=#000000;endArrow=none;endFill=0;strokeWidth=8;strokeColor=#23445D;exitX=0.5;exitY=1;exitDx=0;exitDy=0;" parent="1" source="2" target="5" edge="1">
          <mxGeometry width="100" height="100" relative="1" as="geometry">
            <mxPoint x="600" y="-460" as="sourcePoint" />
            <mxPoint x="700" y="-560" as="targetPoint" />
            <Array as="points">
              <mxPoint x="1230" y="-510" />
            </Array>
          </mxGeometry>
        </mxCell>
        <mxCell id="1Q1P1RtI_Jd911ZKaXiL-234" value="体外实验" style="whiteSpace=wrap;html=1;fontSize=24;fillColor=#10739E;strokeColor=none;fontColor=#FFFFFF;rounded=1;shadow=1;fontStyle=1;" parent="1" vertex="1">
          <mxGeometry x="1130" y="-740" width="100" height="60" as="geometry" />
        </mxCell>
        <mxCell id="1Q1P1RtI_Jd911ZKaXiL-238" value="" style="edgeStyle=elbowEdgeStyle;elbow=vertical;rounded=0;fontColor=#000000;endArrow=none;endFill=0;strokeWidth=8;strokeColor=#23445D;exitX=0.5;exitY=1;exitDx=0;exitDy=0;" parent="1" source="2" edge="1">
          <mxGeometry width="100" height="100" relative="1" as="geometry">
            <mxPoint x="1190" y="-530" as="sourcePoint" />
            <mxPoint x="1180" y="-600" as="targetPoint" />
          </mxGeometry>
        </mxCell>
        <mxCell id="1Q1P1RtI_Jd911ZKaXiL-239" value="" style="edgeStyle=elbowEdgeStyle;elbow=vertical;rounded=0;fontColor=#000000;endArrow=none;endFill=0;strokeWidth=8;strokeColor=#23445D;exitX=0.5;exitY=1;exitDx=0;exitDy=0;" parent="1" source="1Q1P1RtI_Jd911ZKaXiL-234" target="2" edge="1">
          <mxGeometry width="100" height="100" relative="1" as="geometry">
            <mxPoint x="1180" y="-680" as="sourcePoint" />
            <mxPoint x="1180" y="-600" as="targetPoint" />
          </mxGeometry>
        </mxCell>
        <mxCell id="2" value="UC纤维化小鼠模型" style="whiteSpace=wrap;rounded=1;shadow=1;fillColor=#10739E;strokeColor=none;fontColor=#FFFFFF;fontStyle=1;fontSize=24" parent="1" vertex="1">
          <mxGeometry x="1010" y="-640" width="340" height="60" as="geometry" />
        </mxCell>
        <mxCell id="1Q1P1RtI_Jd911ZKaXiL-240" value="模型检测" style="rhombus;whiteSpace=wrap;html=1;fontSize=24;fillColor=#CC99FF;strokeColor=none;fontColor=#FFFFFF;rounded=1;shadow=1;fontStyle=1;" parent="1" vertex="1">
          <mxGeometry x="1390" y="-580" width="210" height="60" as="geometry" />
        </mxCell>
        <mxCell id="1Q1P1RtI_Jd911ZKaXiL-242" value="" style="edgeStyle=elbowEdgeStyle;elbow=vertical;rounded=0;fontColor=#000000;endArrow=none;endFill=0;strokeWidth=8;strokeColor=#23445D;entryX=0;entryY=0.5;entryDx=0;entryDy=0;" parent="1" target="1Q1P1RtI_Jd911ZKaXiL-240" edge="1">
          <mxGeometry width="100" height="100" relative="1" as="geometry">
            <mxPoint x="1180" y="-540" as="sourcePoint" />
            <mxPoint x="2100" y="-470" as="targetPoint" />
            <Array as="points">
              <mxPoint x="1370" y="-550" />
            </Array>
          </mxGeometry>
        </mxCell>
        <mxCell id="1Q1P1RtI_Jd911ZKaXiL-245" value="肠纤维化标志检测" style="whiteSpace=wrap;rounded=1;fillColor=#B9E0A5;strokeColor=none;shadow=1;fontColor=#FFFFFF;fontStyle=1;fontSize=14" parent="1" vertex="1">
          <mxGeometry x="520" y="129.99999999999977" width="140" height="60" as="geometry" />
        </mxCell>
        <mxCell id="1Q1P1RtI_Jd911ZKaXiL-247" value="炎症因子检测" style="whiteSpace=wrap;rounded=1;fillColor=#B9E0A5;strokeColor=none;shadow=1;fontColor=#FFFFFF;fontStyle=1;fontSize=14" parent="1" vertex="1">
          <mxGeometry x="890" y="129.99999999999977" width="140" height="60" as="geometry" />
        </mxCell>
        <mxCell id="1Q1P1RtI_Jd911ZKaXiL-248" value="巨噬细胞极化检测" style="whiteSpace=wrap;rounded=1;fillColor=#B9E0A5;strokeColor=none;shadow=1;fontColor=#FFFFFF;fontStyle=1;fontSize=14" parent="1" vertex="1">
          <mxGeometry x="1260" y="129.99999999999977" width="140" height="60" as="geometry" />
        </mxCell>
        <mxCell id="1Q1P1RtI_Jd911ZKaXiL-249" value="信号通路检测" style="whiteSpace=wrap;rounded=1;fillColor=#B9E0A5;strokeColor=none;shadow=1;fontColor=#FFFFFF;fontStyle=1;fontSize=14" parent="1" vertex="1">
          <mxGeometry x="1630" y="129.99999999999977" width="140" height="60" as="geometry" />
        </mxCell>
        <mxCell id="1Q1P1RtI_Jd911ZKaXiL-252" value="Western Blot" style="whiteSpace=wrap;rounded=1;fillColor=#A9C4EB;strokeColor=none;shadow=1;fontColor=#FFFFFF;" parent="1" vertex="1">
          <mxGeometry x="429.9999999999998" y="260.0000000000001" width="120" height="60" as="geometry" />
        </mxCell>
        <mxCell id="1Q1P1RtI_Jd911ZKaXiL-253" value="RT-qPCR" style="whiteSpace=wrap;rounded=1;fillColor=#A9C4EB;strokeColor=none;shadow=1;fontColor=#FFFFFF;" parent="1" vertex="1">
          <mxGeometry x="629.9999999999998" y="260.0000000000001" width="120" height="60" as="geometry" />
        </mxCell>
        <mxCell id="1Q1P1RtI_Jd911ZKaXiL-256" value="" style="edgeStyle=elbowEdgeStyle;elbow=vertical;rounded=0;fontColor=#000000;endArrow=none;endFill=0;strokeWidth=8;strokeColor=#23445D;fillColor=#A9C4EB;" parent="1" source="1Q1P1RtI_Jd911ZKaXiL-245" target="1Q1P1RtI_Jd911ZKaXiL-252" edge="1">
          <mxGeometry width="100" height="100" relative="1" as="geometry">
            <mxPoint x="230" y="199.99999999999977" as="sourcePoint" />
            <mxPoint x="130" y="270" as="targetPoint" />
          </mxGeometry>
        </mxCell>
        <mxCell id="1Q1P1RtI_Jd911ZKaXiL-257" value="" style="edgeStyle=elbowEdgeStyle;elbow=vertical;rounded=0;fontColor=#000000;endArrow=none;endFill=0;strokeWidth=8;strokeColor=#23445D;fillColor=#A9C4EB;" parent="1" source="1Q1P1RtI_Jd911ZKaXiL-245" target="1Q1P1RtI_Jd911ZKaXiL-253" edge="1">
          <mxGeometry width="100" height="100" relative="1" as="geometry">
            <mxPoint x="230" y="199.99999999999977" as="sourcePoint" />
            <mxPoint x="330" y="270" as="targetPoint" />
          </mxGeometry>
        </mxCell>
        <mxCell id="1Q1P1RtI_Jd911ZKaXiL-258" value="ELISA" style="whiteSpace=wrap;rounded=1;fillColor=#A9C4EB;strokeColor=none;shadow=1;fontColor=#FFFFFF;" parent="1" vertex="1">
          <mxGeometry x="799.9999999999998" y="260.0000000000001" width="120" height="60" as="geometry" />
        </mxCell>
        <mxCell id="1Q1P1RtI_Jd911ZKaXiL-259" value="流式细胞术" style="whiteSpace=wrap;rounded=1;fillColor=#A9C4EB;strokeColor=none;shadow=1;fontColor=#FFFFFF;" parent="1" vertex="1">
          <mxGeometry x="999.9999999999998" y="260.0000000000001" width="120" height="60" as="geometry" />
        </mxCell>
        <mxCell id="1Q1P1RtI_Jd911ZKaXiL-260" value="透射电镜" style="whiteSpace=wrap;rounded=1;fillColor=#A9C4EB;strokeColor=none;shadow=1;fontColor=#FFFFFF;" parent="1" vertex="1">
          <mxGeometry x="1169.9999999999998" y="260.0000000000002" width="120" height="60" as="geometry" />
        </mxCell>
        <mxCell id="1Q1P1RtI_Jd911ZKaXiL-261" value="流式细胞术" style="whiteSpace=wrap;rounded=1;fillColor=#A9C4EB;strokeColor=none;shadow=1;fontColor=#FFFFFF;" parent="1" vertex="1">
          <mxGeometry x="1369.9999999999998" y="260.0000000000002" width="120" height="60" as="geometry" />
        </mxCell>
        <mxCell id="1Q1P1RtI_Jd911ZKaXiL-262" value="WB/RT-qPCR" style="whiteSpace=wrap;rounded=1;fillColor=#A9C4EB;strokeColor=none;shadow=1;fontColor=#FFFFFF;" parent="1" vertex="1">
          <mxGeometry x="1539.9999999999998" y="259.9999999999999" width="120" height="60" as="geometry" />
        </mxCell>
        <mxCell id="1Q1P1RtI_Jd911ZKaXiL-263" value="IF" style="whiteSpace=wrap;rounded=1;fillColor=#A9C4EB;strokeColor=none;shadow=1;fontColor=#FFFFFF;" parent="1" vertex="1">
          <mxGeometry x="1739.9999999999998" y="259.9999999999999" width="120" height="60" as="geometry" />
        </mxCell>
        <mxCell id="1Q1P1RtI_Jd911ZKaXiL-266" value="" style="edgeStyle=elbowEdgeStyle;elbow=vertical;rounded=0;fontColor=#000000;endArrow=none;endFill=0;strokeWidth=8;strokeColor=#23445D;fillColor=#A9C4EB;" parent="1" source="1Q1P1RtI_Jd911ZKaXiL-247" target="1Q1P1RtI_Jd911ZKaXiL-258" edge="1">
          <mxGeometry width="100" height="100" relative="1" as="geometry">
            <mxPoint x="770" y="230" as="sourcePoint" />
            <mxPoint x="870" y="130" as="targetPoint" />
          </mxGeometry>
        </mxCell>
        <mxCell id="1Q1P1RtI_Jd911ZKaXiL-267" value="" style="edgeStyle=elbowEdgeStyle;elbow=vertical;rounded=0;fontColor=#000000;endArrow=none;endFill=0;strokeWidth=8;strokeColor=#23445D;fillColor=#A9C4EB;" parent="1" source="1Q1P1RtI_Jd911ZKaXiL-247" target="1Q1P1RtI_Jd911ZKaXiL-259" edge="1">
          <mxGeometry width="100" height="100" relative="1" as="geometry">
            <mxPoint x="1020" y="240" as="sourcePoint" />
            <mxPoint x="1120" y="140" as="targetPoint" />
          </mxGeometry>
        </mxCell>
        <mxCell id="1Q1P1RtI_Jd911ZKaXiL-268" value="" style="edgeStyle=elbowEdgeStyle;elbow=vertical;rounded=0;fontColor=#000000;endArrow=none;endFill=0;strokeWidth=8;strokeColor=#23445D;fillColor=#A9C4EB;" parent="1" source="1Q1P1RtI_Jd911ZKaXiL-248" target="1Q1P1RtI_Jd911ZKaXiL-260" edge="1">
          <mxGeometry width="100" height="100" relative="1" as="geometry">
            <mxPoint x="1330" y="260" as="sourcePoint" />
            <mxPoint x="1230" y="150" as="targetPoint" />
          </mxGeometry>
        </mxCell>
        <mxCell id="1Q1P1RtI_Jd911ZKaXiL-269" value="" style="edgeStyle=elbowEdgeStyle;elbow=vertical;rounded=0;fontColor=#000000;endArrow=none;endFill=0;strokeWidth=8;strokeColor=#23445D;fillColor=#A9C4EB;" parent="1" source="1Q1P1RtI_Jd911ZKaXiL-248" target="1Q1P1RtI_Jd911ZKaXiL-261" edge="1">
          <mxGeometry width="100" height="100" relative="1" as="geometry">
            <mxPoint x="1420" y="250" as="sourcePoint" />
            <mxPoint x="1520" y="150" as="targetPoint" />
          </mxGeometry>
        </mxCell>
        <mxCell id="1Q1P1RtI_Jd911ZKaXiL-270" value="" style="edgeStyle=elbowEdgeStyle;elbow=vertical;rounded=0;fontColor=#000000;endArrow=none;endFill=0;strokeWidth=8;strokeColor=#23445D;fillColor=#A9C4EB;" parent="1" source="1Q1P1RtI_Jd911ZKaXiL-249" target="1Q1P1RtI_Jd911ZKaXiL-262" edge="1">
          <mxGeometry width="100" height="100" relative="1" as="geometry">
            <mxPoint x="1540" y="250" as="sourcePoint" />
            <mxPoint x="1640" y="150" as="targetPoint" />
          </mxGeometry>
        </mxCell>
        <mxCell id="1Q1P1RtI_Jd911ZKaXiL-271" value="" style="edgeStyle=elbowEdgeStyle;elbow=vertical;rounded=0;fontColor=#000000;endArrow=none;endFill=0;strokeWidth=8;strokeColor=#23445D;fillColor=#A9C4EB;" parent="1" source="1Q1P1RtI_Jd911ZKaXiL-249" target="1Q1P1RtI_Jd911ZKaXiL-263" edge="1">
          <mxGeometry width="100" height="100" relative="1" as="geometry">
            <mxPoint x="1770" y="250" as="sourcePoint" />
            <mxPoint x="1870" y="150" as="targetPoint" />
          </mxGeometry>
        </mxCell>
        <mxCell id="1Q1P1RtI_Jd911ZKaXiL-275" value="" style="edgeStyle=elbowEdgeStyle;elbow=vertical;rounded=0;fontColor=#000000;endArrow=none;endFill=0;strokeWidth=8;strokeColor=#23445D;exitX=0.5;exitY=1;exitDx=0;exitDy=0;" parent="1" source="1Q1P1RtI_Jd911ZKaXiL-283" target="1Q1P1RtI_Jd911ZKaXiL-245" edge="1">
          <mxGeometry width="100" height="100" relative="1" as="geometry">
            <mxPoint x="540" y="110" as="sourcePoint" />
            <mxPoint x="640" y="10" as="targetPoint" />
            <Array as="points">
              <mxPoint x="1110" y="100" />
            </Array>
          </mxGeometry>
        </mxCell>
        <mxCell id="1Q1P1RtI_Jd911ZKaXiL-276" value="" style="edgeStyle=elbowEdgeStyle;elbow=vertical;rounded=0;fontColor=#000000;endArrow=none;endFill=0;strokeWidth=8;strokeColor=#23445D;exitX=0.5;exitY=1;exitDx=0;exitDy=0;" parent="1" source="1Q1P1RtI_Jd911ZKaXiL-283" target="1Q1P1RtI_Jd911ZKaXiL-247" edge="1">
          <mxGeometry width="100" height="100" relative="1" as="geometry">
            <mxPoint x="550" y="120" as="sourcePoint" />
            <mxPoint x="650" y="20" as="targetPoint" />
            <Array as="points">
              <mxPoint x="1140" y="100" />
            </Array>
          </mxGeometry>
        </mxCell>
        <mxCell id="1Q1P1RtI_Jd911ZKaXiL-277" value="" style="edgeStyle=elbowEdgeStyle;elbow=vertical;rounded=0;fontColor=#000000;endArrow=none;endFill=0;strokeWidth=8;strokeColor=#23445D;exitX=0.5;exitY=1;exitDx=0;exitDy=0;" parent="1" source="1Q1P1RtI_Jd911ZKaXiL-283" target="1Q1P1RtI_Jd911ZKaXiL-248" edge="1">
          <mxGeometry width="100" height="100" relative="1" as="geometry">
            <mxPoint x="560" y="130" as="sourcePoint" />
            <mxPoint x="660" y="30" as="targetPoint" />
            <Array as="points">
              <mxPoint x="1250" y="100" />
            </Array>
          </mxGeometry>
        </mxCell>
        <mxCell id="1Q1P1RtI_Jd911ZKaXiL-278" value="" style="edgeStyle=elbowEdgeStyle;elbow=vertical;rounded=0;fontColor=#000000;endArrow=none;endFill=0;strokeWidth=8;strokeColor=#23445D;" parent="1" target="1Q1P1RtI_Jd911ZKaXiL-249" edge="1">
          <mxGeometry width="100" height="100" relative="1" as="geometry">
            <mxPoint x="1160" y="30" as="sourcePoint" />
            <mxPoint x="670" y="40" as="targetPoint" />
            <Array as="points">
              <mxPoint x="1170" y="100" />
            </Array>
          </mxGeometry>
        </mxCell>
        <mxCell id="1Q1P1RtI_Jd911ZKaXiL-280" value="体内实验" style="whiteSpace=wrap;html=1;fontSize=24;fillColor=#CDA2BE;strokeColor=none;fontColor=#FFFFFF;rounded=1;shadow=1;fontStyle=1;" parent="1" vertex="1">
          <mxGeometry x="990" y="-130" width="340" height="60" as="geometry" />
        </mxCell>
        <mxCell id="1Q1P1RtI_Jd911ZKaXiL-281" value="" style="edgeStyle=elbowEdgeStyle;elbow=vertical;rounded=0;fontColor=#000000;endArrow=none;endFill=0;strokeWidth=8;strokeColor=#23445D;exitX=0.5;exitY=1;exitDx=0;exitDy=0;fillColor=#CDA2BE;" parent="1" source="1Q1P1RtI_Jd911ZKaXiL-283" edge="1">
          <mxGeometry width="100" height="100" relative="1" as="geometry">
            <mxPoint x="1170" y="80" as="sourcePoint" />
            <mxPoint x="1160" y="10" as="targetPoint" />
          </mxGeometry>
        </mxCell>
        <mxCell id="1Q1P1RtI_Jd911ZKaXiL-282" value="" style="edgeStyle=elbowEdgeStyle;elbow=vertical;rounded=0;fontColor=#000000;endArrow=none;endFill=0;strokeWidth=8;strokeColor=#23445D;exitX=0.5;exitY=1;exitDx=0;exitDy=0;fillColor=#CDA2BE;" parent="1" source="1Q1P1RtI_Jd911ZKaXiL-280" target="1Q1P1RtI_Jd911ZKaXiL-283" edge="1">
          <mxGeometry width="100" height="100" relative="1" as="geometry">
            <mxPoint x="1160" y="-70" as="sourcePoint" />
            <mxPoint x="1160" y="10" as="targetPoint" />
          </mxGeometry>
        </mxCell>
        <mxCell id="1Q1P1RtI_Jd911ZKaXiL-283" value="UC纤维化细胞模型" style="whiteSpace=wrap;rounded=1;shadow=1;fillColor=#CDA2BE;strokeColor=none;fontColor=#FFFFFF;fontStyle=1;fontSize=24" parent="1" vertex="1">
          <mxGeometry x="990" y="-30" width="340" height="60" as="geometry" />
        </mxCell>
        <mxCell id="1Q1P1RtI_Jd911ZKaXiL-286" value="肠纤维化标志检测" style="whiteSpace=wrap;rounded=1;fillColor=#F19C99;strokeColor=none;shadow=1;fontColor=#FFFFFF;fontStyle=1;fontSize=14" parent="1" vertex="1">
          <mxGeometry x="510" y="729.9999999999998" width="140" height="60" as="geometry" />
        </mxCell>
        <mxCell id="1Q1P1RtI_Jd911ZKaXiL-287" value="炎症因子检测" style="whiteSpace=wrap;rounded=1;fillColor=#F19C99;strokeColor=none;shadow=1;fontColor=#FFFFFF;fontStyle=1;fontSize=14" parent="1" vertex="1">
          <mxGeometry x="880" y="729.9999999999998" width="140" height="60" as="geometry" />
        </mxCell>
        <mxCell id="1Q1P1RtI_Jd911ZKaXiL-288" value="信号通路检测" style="whiteSpace=wrap;rounded=1;fillColor=#F19C99;strokeColor=none;shadow=1;fontColor=#FFFFFF;fontStyle=1;fontSize=14" parent="1" vertex="1">
          <mxGeometry x="1250" y="729.9999999999998" width="140" height="60" as="geometry" />
        </mxCell>
        <mxCell id="1Q1P1RtI_Jd911ZKaXiL-289" value="生物信息学分析" style="whiteSpace=wrap;rounded=1;fillColor=#F19C99;strokeColor=none;shadow=1;fontColor=#FFFFFF;fontStyle=1;fontSize=14" parent="1" vertex="1">
          <mxGeometry x="1620" y="729.9999999999998" width="140" height="60" as="geometry" />
        </mxCell>
        <mxCell id="1Q1P1RtI_Jd911ZKaXiL-290" value="Western Blot" style="whiteSpace=wrap;rounded=1;fillColor=#9AC7BF;strokeColor=none;shadow=1;fontColor=#FFFFFF;" parent="1" vertex="1">
          <mxGeometry x="419.9999999999998" y="860.0000000000001" width="120" height="60" as="geometry" />
        </mxCell>
        <mxCell id="1Q1P1RtI_Jd911ZKaXiL-291" value="RT-qPCR" style="whiteSpace=wrap;rounded=1;fillColor=#9AC7BF;strokeColor=none;shadow=1;fontColor=#FFFFFF;" parent="1" vertex="1">
          <mxGeometry x="619.9999999999998" y="860.0000000000001" width="120" height="60" as="geometry" />
        </mxCell>
        <mxCell id="1Q1P1RtI_Jd911ZKaXiL-292" value="" style="edgeStyle=elbowEdgeStyle;elbow=vertical;rounded=0;fontColor=#000000;endArrow=none;endFill=0;strokeWidth=8;strokeColor=#23445D;fillColor=#9AC7BF;" parent="1" source="1Q1P1RtI_Jd911ZKaXiL-286" target="1Q1P1RtI_Jd911ZKaXiL-290" edge="1">
          <mxGeometry width="100" height="100" relative="1" as="geometry">
            <mxPoint x="220" y="799.9999999999998" as="sourcePoint" />
            <mxPoint x="120" y="870" as="targetPoint" />
          </mxGeometry>
        </mxCell>
        <mxCell id="1Q1P1RtI_Jd911ZKaXiL-293" value="" style="edgeStyle=elbowEdgeStyle;elbow=vertical;rounded=0;fontColor=#000000;endArrow=none;endFill=0;strokeWidth=8;strokeColor=#23445D;fillColor=#9AC7BF;" parent="1" source="1Q1P1RtI_Jd911ZKaXiL-286" target="1Q1P1RtI_Jd911ZKaXiL-291" edge="1">
          <mxGeometry width="100" height="100" relative="1" as="geometry">
            <mxPoint x="220" y="799.9999999999998" as="sourcePoint" />
            <mxPoint x="320" y="870" as="targetPoint" />
          </mxGeometry>
        </mxCell>
        <mxCell id="1Q1P1RtI_Jd911ZKaXiL-294" value="ELISA" style="whiteSpace=wrap;rounded=1;fillColor=#9AC7BF;strokeColor=none;shadow=1;fontColor=#FFFFFF;" parent="1" vertex="1">
          <mxGeometry x="789.9999999999998" y="860.0000000000001" width="120" height="60" as="geometry" />
        </mxCell>
        <mxCell id="1Q1P1RtI_Jd911ZKaXiL-295" value="流式细胞术" style="whiteSpace=wrap;rounded=1;fillColor=#9AC7BF;strokeColor=none;shadow=1;fontColor=#FFFFFF;" parent="1" vertex="1">
          <mxGeometry x="989.9999999999998" y="860.0000000000001" width="120" height="60" as="geometry" />
        </mxCell>
        <mxCell id="1Q1P1RtI_Jd911ZKaXiL-296" value="WB/RT-qPCR" style="whiteSpace=wrap;rounded=1;fillColor=#9AC7BF;strokeColor=none;shadow=1;fontColor=#FFFFFF;" parent="1" vertex="1">
          <mxGeometry x="1159.9999999999998" y="860.0000000000002" width="120" height="60" as="geometry" />
        </mxCell>
        <mxCell id="1Q1P1RtI_Jd911ZKaXiL-297" value="流式细胞术" style="whiteSpace=wrap;rounded=1;fillColor=#9AC7BF;strokeColor=none;shadow=1;fontColor=#FFFFFF;" parent="1" vertex="1">
          <mxGeometry x="1359.9999999999998" y="860.0000000000002" width="120" height="60" as="geometry" />
        </mxCell>
        <mxCell id="1Q1P1RtI_Jd911ZKaXiL-298" value="RNA seq" style="whiteSpace=wrap;rounded=1;fillColor=#9AC7BF;strokeColor=none;shadow=1;fontColor=#FFFFFF;" parent="1" vertex="1">
          <mxGeometry x="1529.9999999999998" y="859.9999999999999" width="120" height="60" as="geometry" />
        </mxCell>
        <mxCell id="1Q1P1RtI_Jd911ZKaXiL-299" value="分子对接" style="whiteSpace=wrap;rounded=1;fillColor=#9AC7BF;strokeColor=none;shadow=1;fontColor=#FFFFFF;" parent="1" vertex="1">
          <mxGeometry x="1729.9999999999998" y="859.9999999999999" width="120" height="60" as="geometry" />
        </mxCell>
        <mxCell id="1Q1P1RtI_Jd911ZKaXiL-300" value="" style="edgeStyle=elbowEdgeStyle;elbow=vertical;rounded=0;fontColor=#000000;endArrow=none;endFill=0;strokeWidth=8;strokeColor=#23445D;fillColor=#9AC7BF;" parent="1" source="1Q1P1RtI_Jd911ZKaXiL-287" target="1Q1P1RtI_Jd911ZKaXiL-294" edge="1">
          <mxGeometry width="100" height="100" relative="1" as="geometry">
            <mxPoint x="760" y="830" as="sourcePoint" />
            <mxPoint x="860" y="730" as="targetPoint" />
          </mxGeometry>
        </mxCell>
        <mxCell id="1Q1P1RtI_Jd911ZKaXiL-301" value="" style="edgeStyle=elbowEdgeStyle;elbow=vertical;rounded=0;fontColor=#000000;endArrow=none;endFill=0;strokeWidth=8;strokeColor=#23445D;fillColor=#9AC7BF;" parent="1" source="1Q1P1RtI_Jd911ZKaXiL-287" target="1Q1P1RtI_Jd911ZKaXiL-295" edge="1">
          <mxGeometry width="100" height="100" relative="1" as="geometry">
            <mxPoint x="1010" y="840" as="sourcePoint" />
            <mxPoint x="1110" y="740" as="targetPoint" />
          </mxGeometry>
        </mxCell>
        <mxCell id="1Q1P1RtI_Jd911ZKaXiL-302" value="" style="edgeStyle=elbowEdgeStyle;elbow=vertical;rounded=0;fontColor=#000000;endArrow=none;endFill=0;strokeWidth=8;strokeColor=#23445D;fillColor=#9AC7BF;" parent="1" source="1Q1P1RtI_Jd911ZKaXiL-288" target="1Q1P1RtI_Jd911ZKaXiL-296" edge="1">
          <mxGeometry width="100" height="100" relative="1" as="geometry">
            <mxPoint x="1320" y="860" as="sourcePoint" />
            <mxPoint x="1220" y="750" as="targetPoint" />
          </mxGeometry>
        </mxCell>
        <mxCell id="1Q1P1RtI_Jd911ZKaXiL-303" value="" style="edgeStyle=elbowEdgeStyle;elbow=vertical;rounded=0;fontColor=#000000;endArrow=none;endFill=0;strokeWidth=8;strokeColor=#23445D;fillColor=#9AC7BF;" parent="1" source="1Q1P1RtI_Jd911ZKaXiL-288" target="1Q1P1RtI_Jd911ZKaXiL-297" edge="1">
          <mxGeometry width="100" height="100" relative="1" as="geometry">
            <mxPoint x="1410" y="850" as="sourcePoint" />
            <mxPoint x="1510" y="750" as="targetPoint" />
          </mxGeometry>
        </mxCell>
        <mxCell id="1Q1P1RtI_Jd911ZKaXiL-304" value="" style="edgeStyle=elbowEdgeStyle;elbow=vertical;rounded=0;fontColor=#000000;endArrow=none;endFill=0;strokeWidth=8;strokeColor=#23445D;fillColor=#9AC7BF;" parent="1" source="1Q1P1RtI_Jd911ZKaXiL-289" target="1Q1P1RtI_Jd911ZKaXiL-298" edge="1">
          <mxGeometry width="100" height="100" relative="1" as="geometry">
            <mxPoint x="1530" y="850" as="sourcePoint" />
            <mxPoint x="1630" y="750" as="targetPoint" />
          </mxGeometry>
        </mxCell>
        <mxCell id="1Q1P1RtI_Jd911ZKaXiL-305" value="" style="edgeStyle=elbowEdgeStyle;elbow=vertical;rounded=0;fontColor=#000000;endArrow=none;endFill=0;strokeWidth=8;strokeColor=#23445D;fillColor=#9AC7BF;" parent="1" source="1Q1P1RtI_Jd911ZKaXiL-289" target="1Q1P1RtI_Jd911ZKaXiL-299" edge="1">
          <mxGeometry width="100" height="100" relative="1" as="geometry">
            <mxPoint x="1760" y="850" as="sourcePoint" />
            <mxPoint x="1860" y="750" as="targetPoint" />
          </mxGeometry>
        </mxCell>
        <mxCell id="1Q1P1RtI_Jd911ZKaXiL-306" value="" style="edgeStyle=elbowEdgeStyle;elbow=vertical;rounded=0;fontColor=#000000;endArrow=none;endFill=0;strokeWidth=8;strokeColor=#23445D;exitX=0.5;exitY=1;exitDx=0;exitDy=0;" parent="1" source="1Q1P1RtI_Jd911ZKaXiL-313" target="1Q1P1RtI_Jd911ZKaXiL-286" edge="1">
          <mxGeometry width="100" height="100" relative="1" as="geometry">
            <mxPoint x="530" y="710" as="sourcePoint" />
            <mxPoint x="630" y="610" as="targetPoint" />
            <Array as="points">
              <mxPoint x="1100" y="700" />
            </Array>
          </mxGeometry>
        </mxCell>
        <mxCell id="1Q1P1RtI_Jd911ZKaXiL-307" value="" style="edgeStyle=elbowEdgeStyle;elbow=vertical;rounded=0;fontColor=#000000;endArrow=none;endFill=0;strokeWidth=8;strokeColor=#23445D;exitX=0.5;exitY=1;exitDx=0;exitDy=0;" parent="1" source="1Q1P1RtI_Jd911ZKaXiL-313" target="1Q1P1RtI_Jd911ZKaXiL-287" edge="1">
          <mxGeometry width="100" height="100" relative="1" as="geometry">
            <mxPoint x="540" y="720" as="sourcePoint" />
            <mxPoint x="640" y="620" as="targetPoint" />
            <Array as="points">
              <mxPoint x="1130" y="700" />
            </Array>
          </mxGeometry>
        </mxCell>
        <mxCell id="1Q1P1RtI_Jd911ZKaXiL-308" value="" style="edgeStyle=elbowEdgeStyle;elbow=vertical;rounded=0;fontColor=#000000;endArrow=none;endFill=0;strokeWidth=8;strokeColor=#23445D;exitX=0.5;exitY=1;exitDx=0;exitDy=0;" parent="1" source="1Q1P1RtI_Jd911ZKaXiL-313" target="1Q1P1RtI_Jd911ZKaXiL-288" edge="1">
          <mxGeometry width="100" height="100" relative="1" as="geometry">
            <mxPoint x="550" y="730" as="sourcePoint" />
            <mxPoint x="650" y="630" as="targetPoint" />
            <Array as="points">
              <mxPoint x="1240" y="700" />
            </Array>
          </mxGeometry>
        </mxCell>
        <mxCell id="1Q1P1RtI_Jd911ZKaXiL-309" value="" style="edgeStyle=elbowEdgeStyle;elbow=vertical;rounded=0;fontColor=#000000;endArrow=none;endFill=0;strokeWidth=8;strokeColor=#23445D;" parent="1" target="1Q1P1RtI_Jd911ZKaXiL-289" edge="1">
          <mxGeometry width="100" height="100" relative="1" as="geometry">
            <mxPoint x="1150" y="630" as="sourcePoint" />
            <mxPoint x="660" y="640" as="targetPoint" />
            <Array as="points">
              <mxPoint x="1160" y="700" />
            </Array>
          </mxGeometry>
        </mxCell>
        <mxCell id="1Q1P1RtI_Jd911ZKaXiL-310" value="人体实验" style="whiteSpace=wrap;html=1;fontSize=24;fillColor=#67AB9F;strokeColor=none;fontColor=#FFFFFF;rounded=1;shadow=1;fontStyle=1;" parent="1" vertex="1">
          <mxGeometry x="980" y="470" width="340" height="60" as="geometry" />
        </mxCell>
        <mxCell id="1Q1P1RtI_Jd911ZKaXiL-311" value="" style="edgeStyle=elbowEdgeStyle;elbow=vertical;rounded=0;fontColor=#000000;endArrow=none;endFill=0;strokeWidth=8;strokeColor=#23445D;exitX=0.5;exitY=1;exitDx=0;exitDy=0;fillColor=#67AB9F;" parent="1" source="1Q1P1RtI_Jd911ZKaXiL-313" edge="1">
          <mxGeometry width="100" height="100" relative="1" as="geometry">
            <mxPoint x="1160" y="680" as="sourcePoint" />
            <mxPoint x="1150" y="610" as="targetPoint" />
          </mxGeometry>
        </mxCell>
        <mxCell id="1Q1P1RtI_Jd911ZKaXiL-312" value="" style="edgeStyle=elbowEdgeStyle;elbow=vertical;rounded=0;fontColor=#000000;endArrow=none;endFill=0;strokeWidth=8;strokeColor=#23445D;exitX=0.5;exitY=1;exitDx=0;exitDy=0;fillColor=#67AB9F;" parent="1" source="1Q1P1RtI_Jd911ZKaXiL-310" target="1Q1P1RtI_Jd911ZKaXiL-313" edge="1">
          <mxGeometry width="100" height="100" relative="1" as="geometry">
            <mxPoint x="1150" y="530" as="sourcePoint" />
            <mxPoint x="1150" y="610" as="targetPoint" />
          </mxGeometry>
        </mxCell>
        <mxCell id="1Q1P1RtI_Jd911ZKaXiL-313" value="类器官培养" style="whiteSpace=wrap;rounded=1;shadow=1;fillColor=#67AB9F;strokeColor=none;fontColor=#FFFFFF;fontStyle=1;fontSize=24" parent="1" vertex="1">
          <mxGeometry x="980" y="570" width="340" height="60" as="geometry" />
        </mxCell>
      </root>
    </mxGraphModel>
  </diagram>
</mxfile>
